<?xml version="1.0" encoding="utf-8"?>
<!-- Generator: Adobe Illustrator 26.0.3, SVG Export Plug-In . SVG Version: 6.00 Build 0)  -->
<svg version="1.1" id="Layer_1" xmlns="http://www.w3.org/2000/svg" xmlns:xlink="http://www.w3.org/1999/xlink" x="0px" y="0px"
	 viewBox="0 0 224.9 227.8" style="enable-background:new 0 0 224.9 227.8;" xml:space="preserve">
<style type="text/css">
	.st0{fill:#EDAA87;stroke:#EDAA87;stroke-miterlimit:10;}
	.st1{fill:#EDAA87;stroke:#EDAA87;stroke-width:0.75;stroke-miterlimit:10;}
	.st2{fill:#EDAA87;stroke:#EDAA87;stroke-width:0.5;stroke-miterlimit:10;}
</style>
<path class="st0" d="M112.4,207.9c-51.9,0-94-42.1-94-94s42.1-94,94-94s94,42.1,94,94S164.3,207.8,112.4,207.9z M112.4,22.9
	c-50.3,0-91,40.7-91,91s40.7,91,91,91s91-40.7,91-91C203.4,63.7,162.7,22.9,112.4,22.9L112.4,22.9z"/>
<path class="st0" d="M137.1,116.5c20.9-1.9,37.5-6.2,37.5-12.8c0-6.4-15.6-10.6-35.7-12.6c10.3-1.5,18.8-4.1,18.8-8.3
	c0-6.1-17.4-8.8-32.6-9.7c7.4-3.2,12.4-9.2,12.4-16c0-10.3-11.3-18.6-25.2-18.6s-25.2,8.4-25.2,18.6c0,6.8,5,12.8,12.4,16
	c-15.2,0.9-32.6,3.6-32.6,9.7c0,4.3,8.5,6.8,18.8,8.3C65.6,93,50,97.3,50,103.7c0,6.6,16.6,10.9,37.5,12.8
	C60.1,121,41,132.6,41,146.7c0,18,31.3,32.1,71.2,32.1s71.2-14.1,71.2-32.1C183.7,132.6,164.6,121,137.1,116.5z M90.2,57.1
	c0-8.6,10-15.6,22.2-15.6s22.2,7,22.2,15.6s-10,15.6-22.2,15.6S90.2,65.7,90.2,57.1z M70.1,82.8c0-2.4,15-7.1,42.4-7.1
	s42.4,4.7,42.4,7.1s-15,7.1-42.4,7.1S70.1,85.2,70.1,82.8z M53.1,103.7c0-4.4,21.4-10.6,56.5-10.9h2.8h2.8
	c35.1,0.3,56.5,6.4,56.5,10.9s-21.6,10.6-57.1,10.9h-2.2h-2.2C74.8,114.4,53.1,108.2,53.1,103.7z M112.4,175.8
	c-37.6,0-68.2-13.1-68.2-29.1s30.6-29.1,68.2-29.1s68.2,13.1,68.2,29.1S150.1,175.8,112.4,175.8L112.4,175.8z"/>
<path class="st1" d="M90,161.8c-7,0-14.6-2.3-22.5-6.8c-6.9-4.1-10-7.8-10.2-7.9l0.8-0.6c2.9,3,6.2,5.6,9.9,7.7
	c10.4,5.9,20.1,7.9,28.8,5.9l0.2,1C94.8,161.5,92.4,161.8,90,161.8z"/>
<path class="st1" d="M63.6,104.3l-0.6-0.8c6-4.8,11.9-5.5,18-5.7c3-0.1,6.1,0.1,9.1,0.7l-0.2,1c-3-0.5-5.9-0.8-8.9-0.7
	C75.2,99.1,69.4,99.7,63.6,104.3z"/>
<path class="st1" d="M79.3,83.3l-0.4-0.9c3.4-1.7,6.7-2,10-2.2c1.7-0.1,3.3-0.1,5,0.1l-0.1,1c-1.6-0.1-3.2-0.2-4.8-0.1
	C85.6,81.2,82.4,81.9,79.3,83.3z"/>
<path class="st2" d="M104.6,52.1c-0.9,0-1.8-0.1-2.7-0.2c-1.3-0.1-2.6-0.4-3.8-0.8l0.2-1.4c1.2,0.4,2.4,0.6,3.6,0.8
	c2.4,0.3,4.8,0.4,7.4-1l0.3,1.3C108.1,51.7,106.4,52.1,104.6,52.1z"/>
<path class="st2" d="M122.3,52.1c-0.9,0-1.8-0.1-2.7-0.2c-1.3-0.1-2.6-0.4-3.9-0.8l0.2-1.4c1.2,0.4,2.5,0.6,3.7,0.8
	c2.5,0.3,5,0.4,7.6-1l0.3,1.3C126,51.7,124.1,52.1,122.3,52.1z"/>
<path class="st2" d="M119.9,68.4c-0.3,0-0.7,0-1-0.1c-1.5-0.2-2.5-1.6-2.3-3c0.1-0.5,0.3-0.9,0.5-1.3c0.6-0.8,1.4-1.5,2.4-1.8
	c1-0.4,2-0.5,3-0.3c0.9,0.2,1.7,0.8,2.1,1.7l0,0c0.3,0.9,0.2,1.9-0.4,2.6c-0.6,0.8-1.4,1.5-2.4,1.8
	C121.2,68.3,120.5,68.4,119.9,68.4z M121.4,63.1c-0.5,0-1,0.1-1.5,0.3c-0.7,0.3-1.3,0.7-1.8,1.3s-0.5,1.4,0.1,2
	c0.2,0.2,0.5,0.3,0.8,0.4c0.7,0.2,1.5,0.1,2.2-0.2c0.7-0.3,1.3-0.7,1.8-1.3c0.3-0.4,0.4-0.9,0.3-1.4l0,0c-0.2-0.5-0.7-0.8-1.2-0.9
	C121.9,63.1,121.7,63.1,121.4,63.1z"/>
</svg>
