<?xml version="1.0" encoding="utf-8"?>
<!-- Generator: Adobe Illustrator 26.0.3, SVG Export Plug-In . SVG Version: 6.00 Build 0)  -->
<svg version="1.1" id="Layer_1" xmlns="http://www.w3.org/2000/svg" xmlns:xlink="http://www.w3.org/1999/xlink" x="0px" y="0px"
	 viewBox="0 0 24 24" style="enable-background:new 0 0 24 24;" xml:space="preserve">
<style type="text/css">
	.st0{fill:#191C33;}
</style>
<path class="st0" d="M20.2,5.6H15v1.6h5.2V5.6z M19.1,16.4c-0.4,0.3-0.9,0.4-1.4,0.4c-0.6,0.1-1.3-0.1-1.8-0.6
	c-0.4-0.5-0.7-1.3-0.6-1.9h6.8c0-0.7,0-1.5-0.2-2.2c-0.2-0.6-0.4-1.4-0.8-1.9c-0.4-0.5-0.9-1.1-1.5-1.4c-0.6-0.3-1.4-0.5-2.1-0.5
	c-0.7,0-1.4,0.1-2,0.4c-0.6,0.2-1.1,0.6-1.5,1.1c-0.4,0.5-0.8,1.1-1,1.7c-0.2,0.6-0.4,1.4-0.3,2.1c0,0.7,0.1,1.5,0.3,2.1
	c0.2,0.6,0.5,1.2,0.9,1.7c0.4,0.4,0.9,0.9,1.5,1.1c0.6,0.2,1.3,0.4,2,0.4c1,0,1.9-0.2,2.6-0.7c0.8-0.6,1.4-1.6,1.7-2.6h-2.3
	C19.6,15.9,19.4,16.2,19.1,16.4z M15.6,11.8c0.2-0.5,0.5-1,1-1.3c0.3-0.1,0.7-0.2,1-0.2c0.5,0,1,0.1,1.4,0.5c0.4,0.4,0.6,1,0.7,1.6
	h-4.1C15.5,12.4,15.5,12.2,15.6,11.8L15.6,11.8z M10.2,11.3c0.5-0.2,1-0.6,1.3-1.1C11.9,9.8,12,9.2,12,8.5c0-0.5-0.1-1.2-0.3-1.6
	c-0.2-0.4-0.5-0.7-0.9-1.1C10.5,5.5,10,5.3,9.6,5.2S8.5,5,7.9,5H1.8v14H8c0.6,0,1.2-0.1,1.7-0.2c0.5-0.1,1-0.4,1.5-0.7
	c0.4-0.3,0.8-0.7,1-1.3c0.3-0.5,0.4-1.2,0.4-1.8c0-0.7-0.2-1.6-0.6-2.2C11.6,12.1,10.9,11.5,10.2,11.3L10.2,11.3z M4.7,7.4h2.6
	c0.2,0,0.5,0,0.7,0.1c0.2,0,0.4,0.1,0.6,0.2C8.8,7.8,9,8,9.1,8.2c0.1,0.2,0.2,0.5,0.2,0.9c0,0.5-0.1,1-0.5,1.3
	c-0.4,0.2-0.8,0.3-1.3,0.3H4.7V7.4z M9.6,15.6c-0.1,0.3-0.3,0.4-0.5,0.6c-0.2,0.1-0.4,0.2-0.7,0.3c-0.3,0.1-0.5,0.1-0.8,0.1h-3v-3.8
	h3c0.5,0,1.1,0.1,1.5,0.4c0.4,0.4,0.6,1,0.6,1.5C9.7,15,9.7,15.4,9.6,15.6L9.6,15.6z"/>
</svg>
