<?xml version="1.0" encoding="utf-8"?>
<!-- Generator: Adobe Illustrator 26.2.1, SVG Export Plug-In . SVG Version: 6.00 Build 0)  -->
<svg version="1.1" id="Layer_1" xmlns="http://www.w3.org/2000/svg" xmlns:xlink="http://www.w3.org/1999/xlink" x="0px" y="0px"
	 viewBox="0 0 24 24" style="enable-background:new 0 0 24 24;" xml:space="preserve">
<style type="text/css">
	.st0{fill-rule:evenodd;clip-rule:evenodd;fill:#191C33;}
</style>
<path class="st0" d="M2.7,11.7L2.7,11.7c0,2.3,0.8,4.3,2.1,5.8c0.4,0.4,0.8,0.9,1.3,1.2c0.5,0.4,1,0.7,1.5,1
	c0.8,0.4,1.6,0.7,2.5,0.8c0.5,0.1,1,0.1,1.5,0.2c0,0,0.1,0,0.1,0c3,0,5.7-1.5,7.3-3.8c0.3-0.5,0.6-1,0.9-1.5
	c0.5-1.1,0.8-2.4,0.8-3.7c0-2.7-1.2-5-3-6.7c-0.4-0.4-0.9-0.7-1.4-1c-1.3-0.8-2.9-1.3-4.6-1.3c-0.1,0-0.2,0-0.3,0
	c-1.4,0-2.6,0.4-3.8,1C6.9,4.1,6.2,4.6,5.5,5.2C5,5.8,4.5,6.4,4,7.1c-0.3,0.5-0.5,1-0.7,1.5C2.9,9.6,2.8,10.6,2.7,11.7z M18.6,14.2
	c0.3-0.8,0.4-1.6,0.4-2.5c0-2-0.8-3.8-2.1-5.1c-0.7,1.1-1.6,2-2.6,2.7c0.4,1,0.6,2,0.6,3.1c0.6,0.1,1.2,0.3,1.8,0.6
	C17.5,13.4,18.1,13.7,18.6,14.2z M14.9,14.1c0.4,0.1,0.9,0.3,1.3,0.5c0.7,0.3,1.2,0.7,1.8,1.1c-1.2,1.9-3.3,3.2-5.7,3.4
	c0.8-0.8,1.5-1.7,2-2.7C14.5,15.6,14.7,14.8,14.9,14.1z M13.3,12.2c0-0.7-0.2-1.4-0.4-2.1c-2.3,1-5,1.1-7.5-0.1
	C5.2,9.9,4.9,9.8,4.7,9.6c-0.2,0.7-0.3,1.4-0.3,2.1c0,1.6,0.5,3.1,1.4,4.3C7.5,13.5,10.4,12.1,13.3,12.2z M6.9,17.2
	c1.4-2.2,3.9-3.4,6.4-3.4c-0.1,0.6-0.3,1.2-0.6,1.8C12,17,11,18.1,9.8,18.8C8.7,18.5,7.7,18,6.9,17.2z M11.7,4.4
	c1.5,0,2.8,0.4,4,1.2c-0.5,0.9-1.2,1.7-2,2.3c-0.8-1.4-2-2.5-3.5-3.3C10.6,4.4,11.2,4.4,11.7,4.4z M9.1,5.9c1.3,0.6,2.4,1.6,3.1,2.8
	c-1.9,0.8-4.1,0.9-6.1-0.1C5.9,8.4,5.6,8.3,5.3,8.1c0.6-1.1,1.5-2,2.6-2.7C8.3,5.6,8.7,5.7,9.1,5.9z"/>
</svg>
