<?xml version="1.0" encoding="utf-8"?>
<!-- Generator: Adobe Illustrator 26.0.3, SVG Export Plug-In . SVG Version: 6.00 Build 0)  -->
<svg version="1.1" id="Layer_1" xmlns="http://www.w3.org/2000/svg" xmlns:xlink="http://www.w3.org/1999/xlink" x="0px" y="0px"
	 viewBox="0 0 24 24" style="enable-background:new 0 0 24 24;" xml:space="preserve">
<style type="text/css">
	.st0{fill:#BF6B4B;}
</style>
<path class="st0" d="M15.8,7.4L15.8,7.4c-0.5,0-0.8,0.4-0.8,0.9c0,0.5,0.4,0.8,0.9,0.8c0.5,0,0.8-0.4,0.8-0.9l0,0
	C16.6,7.8,16.2,7.5,15.8,7.4z M19,9.1c0-0.6-0.1-1.2-0.3-1.7c-0.4-0.9-1.1-1.7-2-2.1C16.1,5.1,15.5,5,14.9,5H9.1
	C8.5,5,7.9,5.1,7.4,5.3C6.9,5.5,6.5,5.8,6.1,6.1C5.8,6.5,5.5,6.9,5.3,7.4C5.1,7.9,5,8.5,5,9.1v5.8c0,0.6,0.1,1.2,0.3,1.7
	c0.1,0.5,0.4,0.9,0.8,1.2c0.4,0.4,0.8,0.6,1.3,0.8C7.9,18.9,8.5,19,9.1,19h5.8c0.6,0,1.2-0.1,1.7-0.3c0.9-0.4,1.7-1.2,2.1-2.1
	c0.2-0.5,0.3-1.1,0.3-1.7V12C19,11,19,10.1,19,9.1z M17.7,14.8c0,0.4-0.1,0.9-0.2,1.3c-0.1,0.3-0.3,0.6-0.5,0.9
	c-0.2,0.2-0.5,0.4-0.8,0.5c-0.4,0.1-0.9,0.2-1.3,0.2H9.3c-0.5,0-0.9-0.1-1.4-0.2c-0.3-0.1-0.6-0.3-0.8-0.6c-0.2-0.2-0.4-0.5-0.5-0.8
	c-0.2-0.4-0.3-0.8-0.3-1.3V9.2c0-0.5,0.1-1,0.3-1.4c0-0.3,0.2-0.5,0.5-0.8c0.2-0.2,0.5-0.4,0.8-0.6c0.4-0.2,0.9-0.2,1.3-0.2h5.6
	c0.4,0,0.9,0.1,1.3,0.2C16.4,6.6,16.7,6.8,17,7c0.2,0.2,0.4,0.5,0.5,0.8c0.2,0.4,0.2,0.9,0.2,1.3v2.8C17.7,12.9,17.7,13.8,17.7,14.8
	z M12,8.4c-2,0-3.6,1.6-3.6,3.6s1.6,3.6,3.6,3.6s3.6-1.6,3.6-3.6C15.6,10,14,8.4,12,8.4C12,8.4,12,8.4,12,8.4z M12,14.4
	c-1.3,0-2.3-1.1-2.3-2.4s1.1-2.3,2.4-2.3c1.2,0,2.3,1,2.3,2.2c0,0,0,0.1,0,0.1l0,0C14.4,13.3,13.3,14.4,12,14.4z"/>
</svg>
