<?xml version="1.0" encoding="utf-8"?>
<!-- Generator: Adobe Illustrator 26.0.3, SVG Export Plug-In . SVG Version: 6.00 Build 0)  -->
<svg version="1.1" id="Layer_1" xmlns="http://www.w3.org/2000/svg" xmlns:xlink="http://www.w3.org/1999/xlink" x="0px" y="0px"
	 viewBox="0 0 24 24" style="enable-background:new 0 0 24 24;" xml:space="preserve">
<style type="text/css">
	.st0{fill:#191C33;}
</style>
<path class="st0" d="M5,6.7c0-0.4,0.2-0.9,0.5-1.2C5.8,5.2,6.3,5,6.7,5s0.9,0.1,1.2,0.4c0.3,0.3,0.5,0.8,0.5,1.2S8.2,7.4,7.9,7.7
	C7.6,8.2,7.1,8.4,6.6,8.3l0,0c-0.5,0-0.9-0.1-1.2-0.5C5.1,7.6,5,7.2,5,6.7z M5.2,19V9.6h3V19H5.2z M9.8,19h3v-5.2
	c0-0.3,0-0.5,0.1-0.8s0.3-0.6,0.6-0.8s0.6-0.3,1-0.3c1,0,1.5,0.7,1.5,2.1v5h3v-5.4c0.1-1.1-0.3-2.3-1-3.2c-0.7-0.7-1.5-1.1-2.5-1.1
	c-1.2,0-2.1,0.6-2.7,1.6l0,0l0,0V9.6h-3c0,0.3,0,1.2,0,2.8S9.8,16.2,9.8,19z"/>
</svg>
