<?xml version="1.0" encoding="utf-8"?>
<!-- Generator: Adobe Illustrator 26.0.3, SVG Export Plug-In . SVG Version: 6.00 Build 0)  -->
<svg version="1.1" id="Layer_1" xmlns="http://www.w3.org/2000/svg" xmlns:xlink="http://www.w3.org/1999/xlink" x="0px" y="0px"
	 viewBox="0 0 485.9 432.9" style="enable-background:new 0 0 485.9 432.9;" xml:space="preserve">
<style type="text/css">
	.st0{display:none;fill:#FFFFFF;stroke:#000000;stroke-width:0.3465;stroke-miterlimit:10;}
	.st1{fill:#BF6B4B;stroke:#191C33;stroke-width:0.3579;stroke-miterlimit:10;}
</style>
<path class="st0" d="M405.5,425.5h-324C39.4,425.5,5,391.1,5,349V82C5,39.9,39.4,5.5,81.5,5.5h324C447.6,5.5,482,39.9,482,82v267
	C482,391.1,447.6,425.5,405.5,425.5z"/>
<path class="st1" d="M330.8,19.8H154.7C69.3,19.9,0.1,89,0,174.5v41.9h28.6v-41.9c0-69.5,56.5-125.9,126-126h176.1
	c69.5,0,126,56.5,126,126v83.7c0,69.5-56.5,126-126,126h-88.1l-20-0.1c-74.1,0-142.4,11.2-148.6-43.6h-0.1
	c-0.1-5.1-0.1-10.3-0.1-15.7c0-30.8,9.2-63.2,25.8-93.5h127.7V346h33V231.1h95.1V346h32.9V86.2h-33v111.9h-95.1V86.2h-33
	c-41.1,9.2-80.3,34.6-114.9,72.6c-44.4,48.4-69.7,108.9-69.7,165.9c0,7.3,0.1,14.3,0.4,21.4h0.7c5.4,38.9,21,46.4,35,54.1
	c28.7,15.8,103.7,12.6,148.2,12.6h104.2c85.5-0.1,154.6-69.2,154.7-154.7v-83.7C485.6,89,416.3,19.8,330.8,19.8z M134.6,182.4
	c28-30.7,59.8-51.5,92.6-60.7v76.2H121.4C125.6,192.7,129.9,187.5,134.6,182.4z"/>
</svg>
