<svg id="Layer_1" data-name="Layer 1" xmlns="http://www.w3.org/2000/svg" viewBox="0 0 485.86 432.85"><defs><style>.cls-1{fill:#191c33;stroke:#191c33;stroke-miterlimit:10;stroke-width:0.23px;}.cls-2{fill:#bf6b4b;}</style></defs><path class="cls-1" d="M296.12,59.38H182.88a99.49,99.49,0,0,0-99.37,99.37v26.89h18.42V158.75A81,81,0,0,1,182.88,77.8H296.12a81,81,0,0,1,81,81v53.78a81.05,81.05,0,0,1-81,81H239.5l-12.82-.06c-47.58,0-91.52,7.22-95.49-28h-.12c-.09-3.29-.14-6.64-.14-10.07,0-19.83,5.85-40.62,16.57-60.14h82V269h21.25V195.19h61.07V269h21.25V102.14H311.84V174H250.77V102.14H229.52c-26.38,5.9-51.56,22.25-73.83,46.6-28.5,31.15-44.85,70-44.85,106.59,0,4.69.09,9.25.26,13.71h.44C115,294,125,298.86,134,303.81c18.46,10.2,66.59,8.1,95.19,8.1h67a99.49,99.49,0,0,0,99.37-99.38V158.75A99.49,99.49,0,0,0,296.12,59.38ZM170,163.91c18-19.71,38.36-33.15,59.52-39v49h-68Q165.52,168.81,170,163.91Z"/><path class="cls-2" d="M105.8,371.92l9.39-44.48h19.89a22.8,22.8,0,0,1,9.15,1.73,13.26,13.26,0,0,1,6.18,5.31,17.11,17.11,0,0,1,2.21,9.12,29.49,29.49,0,0,1-.17,3c-.12,1.06-.29,2.16-.52,3.31a35.11,35.11,0,0,1-4.69,12.5,19.21,19.21,0,0,1-8.33,7.15,30.89,30.89,0,0,1-12.74,2.32Zm15-9.95h5.25a15.78,15.78,0,0,0,5.67-.93,8.86,8.86,0,0,0,4.14-3.52,22,22,0,0,0,2.76-7.57c.23-1.19.42-2.3.55-3.31a20.25,20.25,0,0,0,.21-2.76q0-3.74-1.93-5.11t-6.15-1.39H126.1Z"/><path class="cls-2" d="M152.14,371.92l9.39-44.48h33.7l-2.07,9.94H172.44l-1.59,7.26H189l-2.14,10.08H168.71L167.19,362h20.72l-2.07,9.95Z"/><path class="cls-2" d="M204.42,372.61a44.86,44.86,0,0,1-8.36-.73,22.36,22.36,0,0,1-6.35-2l2.28-10.7a30.06,30.06,0,0,0,6.42,2.35,28.4,28.4,0,0,0,6.91.9,18.7,18.7,0,0,0,5.32-.59,3.36,3.36,0,0,0,2.34-2.66,2.66,2.66,0,0,0,.07-.69c0-1.15-.71-2-2.14-2.56s-3.54-1.31-6.35-2.28a19.11,19.11,0,0,1-7.12-4,8.27,8.27,0,0,1-2.41-6.18c0-.5,0-1,.07-1.55a11.13,11.13,0,0,1,.27-1.69,15.19,15.19,0,0,1,6.53-10q5.15-3.42,14.88-3.42a46.08,46.08,0,0,1,7.43.62,38.37,38.37,0,0,1,6,1.38l-2.28,10.78a27.1,27.1,0,0,0-5.8-1.87,28.4,28.4,0,0,0-5.46-.55,25.56,25.56,0,0,0-5.28.48,3.23,3.23,0,0,0-2.73,2.49,2.29,2.29,0,0,0-.07.62c0,.87.58,1.54,1.73,2s3.06,1.11,5.73,1.94q6,1.78,8.36,4.42a9,9,0,0,1,2.35,6.21,13.64,13.64,0,0,1-.14,1.87c-.09.64-.21,1.31-.35,2a16.64,16.64,0,0,1-3.21,7,15.27,15.27,0,0,1-6.87,4.73A33.83,33.83,0,0,1,204.42,372.61Z"/><path class="cls-2" d="M228.45,371.92l9.4-44.48h13l-9.39,44.48Z"/><path class="cls-2" d="M270.38,372.61a26.83,26.83,0,0,1-10.61-1.94,15.38,15.38,0,0,1-7-5.69,16.44,16.44,0,0,1-2.48-9.22,28,28,0,0,1,.62-5.67q2.41-11.19,9.74-17.26t20.44-6.08a50.93,50.93,0,0,1,7.39.48,33,33,0,0,1,6,1.45l-2.42,11.12a22.82,22.82,0,0,0-5.9-1.59,51.09,51.09,0,0,0-6.53-.41,16.82,16.82,0,0,0-10,2.9q-4.08,2.9-5.46,9.39a21.56,21.56,0,0,0-.62,4.7q0,3.52,2.1,5.14t7.08,1.63a22,22,0,0,0,3.42-.25,26,26,0,0,0,3.14-.65l1.39-6.49h-8.84l1.72-8h19.69l-4.77,22.37a34.37,34.37,0,0,1-7.42,2.83A40.54,40.54,0,0,1,270.38,372.61Z"/><path class="cls-2" d="M292.68,371.92l9.39-44.48h11.06L324.94,351l5-23.55h13l-9.39,44.48H322.38l-11.74-23.49-5,23.49Z"/><path class="cls-2" d="M354.15,372.61a44.86,44.86,0,0,1-8.36-.73,22.36,22.36,0,0,1-6.35-2l2.28-10.7a29.86,29.86,0,0,0,6.42,2.35,28.4,28.4,0,0,0,6.91.9,18.7,18.7,0,0,0,5.32-.59,3.36,3.36,0,0,0,2.34-2.66,2.66,2.66,0,0,0,.07-.69c0-1.15-.71-2-2.14-2.56s-3.54-1.31-6.35-2.28a19,19,0,0,1-7.12-4,8.27,8.27,0,0,1-2.41-6.18c0-.5,0-1,.07-1.55a11.13,11.13,0,0,1,.27-1.69,15.19,15.19,0,0,1,6.53-10q5.14-3.42,14.88-3.42a46.08,46.08,0,0,1,7.43.62,38.65,38.65,0,0,1,6,1.38l-2.28,10.78a27.1,27.1,0,0,0-5.8-1.87,28.4,28.4,0,0,0-5.46-.55,25.56,25.56,0,0,0-5.28.48,3.23,3.23,0,0,0-2.73,2.49,2.29,2.29,0,0,0-.07.62c0,.87.58,1.54,1.73,2s3.06,1.11,5.73,1.94q6,1.78,8.36,4.42a9,9,0,0,1,2.35,6.21,13.64,13.64,0,0,1-.14,1.87c-.09.64-.21,1.31-.35,2a16.64,16.64,0,0,1-3.21,7,15.27,15.27,0,0,1-6.87,4.73A33.83,33.83,0,0,1,354.15,372.61Z"/></svg>