<?xml version="1.0" encoding="utf-8"?>
<!-- Generator: Adobe Illustrator 26.1.0, SVG Export Plug-In . SVG Version: 6.00 Build 0)  -->
<svg version="1.1" id="Layer_1" xmlns="http://www.w3.org/2000/svg" xmlns:xlink="http://www.w3.org/1999/xlink" x="0px" y="0px"
	 viewBox="0 0 485.9 432.9" style="enable-background:new 0 0 485.9 432.9;" xml:space="preserve">
<style type="text/css">
	.st0{fill:#FFFFFF;stroke:#FFFFFF;stroke-width:0.23;stroke-miterlimit:10;}
	.st1{fill:#BF6B4B;}
</style>
<path class="st0" d="M296.1,59.4H182.9c-54.9,0.1-99.3,44.5-99.4,99.4v26.9h18.4v-26.9c0-44.7,36.3-80.9,81-81h113.2
	c44.7,0,81,36.3,81,81v53.8c0,44.7-36.3,81-81,81h-56.6l-12.8-0.1c-47.6,0-91.5,7.2-95.5-28h-0.1c-0.1-3.3-0.1-6.6-0.1-10.1
	c0-19.8,5.9-40.6,16.6-60.1h82V269h21.2v-73.8h61.1V269h21.2V102.1h-21.2V174h-61.1v-71.9h-21.2c-26.4,5.9-51.6,22.2-73.8,46.6
	c-28.5,31.1-44.8,70-44.8,106.6c0,4.7,0.1,9.2,0.3,13.7h0.4c3.5,25,13.5,29.8,22.5,34.8c18.5,10.2,66.6,8.1,95.2,8.1h67
	c54.9-0.1,99.3-44.5,99.4-99.4v-53.8C395.5,103.9,351,59.4,296.1,59.4z M170,163.9c18-19.7,38.4-33.1,59.5-39v49h-68
	C164.2,170.5,167,167.2,170,163.9z"/>
<path class="st1" d="M105.8,371.9l9.4-44.5h19.9c3.1-0.1,6.3,0.5,9.1,1.7c2.6,1.1,4.7,2.9,6.2,5.3c1.6,2.8,2.3,5.9,2.2,9.1
	c0,1-0.1,2-0.2,3c-0.1,1.1-0.3,2.2-0.5,3.3c-0.7,4.4-2.3,8.7-4.7,12.5c-2,3.1-4.9,5.6-8.3,7.1c-4,1.7-8.4,2.5-12.7,2.3L105.8,371.9z
	 M120.8,362h5.2c1.9,0,3.9-0.3,5.7-0.9c1.7-0.7,3.2-1.9,4.1-3.5c1.4-2.3,2.3-4.9,2.8-7.6c0.2-1.2,0.4-2.3,0.6-3.3
	c0.1-0.9,0.2-1.8,0.2-2.8c0-2.5-0.6-4.2-1.9-5.1s-3.3-1.4-6.1-1.4h-5.2L120.8,362z"/>
<path class="st1" d="M152.1,371.9l9.4-44.5h33.7l-2.1,9.9h-20.7l-1.6,7.3H189l-2.1,10.1h-18.1l-1.5,7.3H188l-2.1,10L152.1,371.9z"/>
<path class="st1" d="M204.4,372.6c-2.8,0-5.6-0.2-8.4-0.7c-2.2-0.3-4.3-1-6.4-2l2.3-10.7c2,1,4.2,1.8,6.4,2.4
	c2.3,0.6,4.6,0.9,6.9,0.9c1.8,0.1,3.6-0.1,5.3-0.6c1.2-0.4,2.1-1.4,2.3-2.7c0.1-0.2,0.1-0.5,0.1-0.7c0-1.1-0.7-2-2.1-2.6
	s-3.5-1.3-6.4-2.3c-2.6-0.8-5.1-2.2-7.1-4c-1.6-1.6-2.5-3.9-2.4-6.2c0-0.5,0-1,0.1-1.5c0-0.6,0.1-1.1,0.3-1.7
	c0.7-4.1,3.1-7.7,6.5-10s8.4-3.4,14.9-3.4c2.5,0,5,0.2,7.4,0.6c2,0.3,4,0.8,6,1.4l-2.3,10.8c-1.9-0.8-3.8-1.5-5.8-1.9
	c-1.8-0.4-3.6-0.5-5.5-0.5c-1.8,0-3.5,0.1-5.3,0.5c-1.3,0.2-2.4,1.2-2.7,2.5c-0.1,0.2-0.1,0.4-0.1,0.6c0,0.9,0.6,1.5,1.7,2
	s3.1,1.1,5.7,1.9c4,1.2,6.8,2.7,8.4,4.4c1.5,1.7,2.4,3.9,2.4,6.2c0,0.6-0.1,1.3-0.1,1.9c-0.1,0.6-0.2,1.3-0.4,2
	c-0.5,2.6-1.6,4.9-3.2,7c-1.8,2.2-4.2,3.8-6.9,4.7C212.4,372.2,208.4,372.7,204.4,372.6z"/>
<path class="st1" d="M228.4,371.9l9.4-44.5h13l-9.4,44.5H228.4z"/>
<path class="st1" d="M270.4,372.6c-3.6,0.1-7.2-0.6-10.6-1.9c-2.8-1.2-5.3-3.1-7-5.7c-1.7-2.8-2.6-6-2.5-9.2c0-1.9,0.2-3.8,0.6-5.7
	c1.6-7.5,4.9-13.2,9.7-17.3c4.9-4,11.7-6.1,20.4-6.1c2.5,0,4.9,0.1,7.4,0.5c2,0.3,4,0.8,6,1.5l-2.4,11.1c-1.9-0.8-3.9-1.3-5.9-1.6
	c-2.2-0.3-4.3-0.4-6.5-0.4c-3.6-0.1-7.1,0.9-10,2.9c-2.7,1.9-4.5,5.1-5.5,9.4c-0.4,1.5-0.6,3.1-0.6,4.7c0,2.3,0.7,4.1,2.1,5.1
	c1.4,1.1,3.8,1.6,7.1,1.6c1.1,0,2.3-0.1,3.4-0.2c1.1-0.2,2.1-0.4,3.1-0.6l1.4-6.5h-8.8l1.7-8h19.7l-4.8,22.4
	c-2.4,1.2-4.8,2.2-7.4,2.8C277.6,372.3,274,372.7,270.4,372.6z"/>
<path class="st1" d="M292.7,371.9l9.4-44.5h11.1L325,351l5-23.5h13l-9.4,44.5h-11.2l-11.7-23.5l-5,23.5L292.7,371.9z"/>
<path class="st1" d="M354.1,372.6c-2.8,0-5.6-0.2-8.4-0.7c-2.2-0.3-4.3-1-6.4-2l2.3-10.7c2,1,4.2,1.8,6.4,2.4
	c2.3,0.6,4.6,0.9,6.9,0.9c1.8,0.1,3.6-0.1,5.3-0.6c1.2-0.4,2.1-1.4,2.3-2.7c0.1-0.2,0.1-0.5,0.1-0.7c0-1.1-0.7-2-2.1-2.6
	s-3.5-1.3-6.4-2.3c-2.6-0.8-5.1-2.2-7.1-4c-1.6-1.6-2.5-3.9-2.4-6.2c0-0.5,0-1,0.1-1.5c0-0.6,0.1-1.1,0.3-1.7
	c0.7-4.1,3.1-7.7,6.5-10s8.4-3.4,14.9-3.4c2.5,0,5,0.2,7.4,0.6c2,0.3,4,0.8,6,1.4l-2.3,10.8c-1.9-0.8-3.8-1.5-5.8-1.9
	c-1.8-0.4-3.6-0.5-5.5-0.5c-1.8,0-3.5,0.1-5.3,0.5c-1.3,0.2-2.4,1.2-2.7,2.5c-0.1,0.2-0.1,0.4-0.1,0.6c0,0.9,0.6,1.5,1.7,2
	s3.1,1.1,5.7,1.9c4,1.2,6.8,2.7,8.4,4.4c1.5,1.7,2.4,3.9,2.4,6.2c0,0.6-0.1,1.3-0.1,1.9c-0.1,0.6-0.2,1.3-0.4,2
	c-0.5,2.6-1.6,4.9-3.2,7c-1.8,2.2-4.2,3.8-6.9,4.7C362.1,372.2,358.1,372.7,354.1,372.6z"/>
</svg>
