<?xml version="1.0" encoding="utf-8"?>
<!-- Generator: Adobe Illustrator 26.0.3, SVG Export Plug-In . SVG Version: 6.00 Build 0)  -->
<svg version="1.1" id="Layer_1" xmlns="http://www.w3.org/2000/svg" xmlns:xlink="http://www.w3.org/1999/xlink" x="0px" y="0px"
	 viewBox="0 0 288 560" style="enable-background:new 0 0 288 560;" xml:space="preserve">
<style type="text/css">
	.st0{fill:#F9A7F7;stroke:#000000;stroke-miterlimit:10;}
	.st1{fill:#CED685;stroke:#000000;stroke-width:1.1017;stroke-miterlimit:10;}
	.st2{fill:#EDBBAB;stroke:#000000;stroke-width:1.1017;stroke-miterlimit:10;}
	.st3{stroke:#000000;stroke-width:0.3064;stroke-miterlimit:10;}
	.st4{stroke:#000000;stroke-miterlimit:10;}
	.st5{fill:#7C7A7A;stroke:#000000;stroke-width:1.1017;stroke-miterlimit:10;}
	.st6{fill:none;stroke:#BCBCBC;stroke-miterlimit:10;}
	.st7{opacity:0.4;fill:none;stroke:#000000;stroke-miterlimit:10;}
</style>
<path class="st0" d="M172,65.6H116c-9.1,0-16.5,7.4-16.5,16.5v26.8h89V82C188.5,73,181.1,65.6,172,65.6z"/>
<polygon class="st1" points="99.5,131.4 99.5,452.7 99.5,452.7 144,530.2 188.5,452.7 188.5,452.7 188.5,131.4 "/>
<polygon class="st2" points="144,530.2 188.5,452.7 99.5,452.7 "/>
<polygon class="st3" points="144,531.1 156.3,509.3 131.7,509.3 "/>
<line class="st4" x1="99.5" y1="452.7" x2="188.5" y2="452.7"/>
<rect x="99.5" y="108.8" class="st5" width="89" height="22.6"/>
<line class="st6" x1="99.5" y1="119.8" x2="188.5" y2="119.8"/>
<line class="st6" x1="99.5" y1="125.6" x2="188.5" y2="125.6"/>
<line class="st6" x1="99.5" y1="114" x2="188.5" y2="114"/>
<line class="st7" x1="116.5" y1="131.4" x2="116.5" y2="452.7"/>
<line class="st7" x1="134.1" y1="131.4" x2="134.1" y2="452.7"/>
<line class="st7" x1="152.3" y1="131.4" x2="152.3" y2="452.7"/>
<line class="st7" x1="169.5" y1="131.4" x2="169.5" y2="452.7"/>
</svg>
