<?xml version="1.0" encoding="utf-8"?>
<!-- Generator: Adobe Illustrator 26.0.3, SVG Export Plug-In . SVG Version: 6.00 Build 0)  -->
<svg version="1.1" id="Layer_1" xmlns="http://www.w3.org/2000/svg" xmlns:xlink="http://www.w3.org/1999/xlink" x="0px" y="0px"
	 viewBox="0 0 1013.5 259.2" style="enable-background:new 0 0 1013.5 259.2;" xml:space="preserve">
<style type="text/css">
	.st0{fill:#D8C513;}
	.st1{stroke:#000000;stroke-width:10;stroke-miterlimit:10;}
	.st2{fill:none;stroke:#000000;stroke-width:10;stroke-miterlimit:10;}
	.st3{fill:#BF6B4B;}
</style>
<g id="happy">
	<circle class="st0" cx="899.6" cy="119.1" r="86.1"/>
	<g>
		<rect x="866.3" y="68.2" width="14.3" height="42"/>
		<rect x="918.7" y="68.2" width="14.3" height="42"/>
	</g>
	<path class="st1" d="M947.8,139.2c0,19.2-21.6,34.7-48.2,34.7c-26.6,0-48.2-15.5-48.2-34.7"/>
</g>
<g id="sad">
	<circle class="st0" cx="119.1" cy="128" r="86.1"/>
	<g>
		<rect x="85.8" y="77.1" width="14.3" height="42"/>
		<rect x="138.2" y="77.1" width="14.3" height="42"/>
	</g>
	<path class="st2" d="M68.9,169.9c0-11.7,22.5-21.2,50.2-21.2s50.2,9.5,50.2,21.2"/>
</g>
<path class="st3" d="M780.2,102.5l-21.6-27.4l-6.1,5.1l14.8,18.9c-34.6-9.3-135.2-33.2-260.5-33.2c-155.2,0-257.3,31.8-258.3,32.2
	l2.8,7.5c1-0.4,101.9-31.7,255.5-31.8c127.9,0,229.8,25.1,261.1,33.7l-21.4,15l4.6,6.5l26.6-18.5l-0.1-0.2c0.1,0,0.2,0.1,0.2,0.1
	l2.4-7.6c0,0-0.1,0-0.3-0.1L780.2,102.5z"/>
<ellipse id="starting" transform="matrix(0.3162 -0.9487 0.9487 0.3162 69.5623 304.9115)" class="st3" cx="246.3" cy="104.2" rx="10.5" ry="10.5"/>
</svg>
