<?xml version="1.0" encoding="utf-8"?>
<!-- Generator: Adobe Illustrator 26.0.3, SVG Export Plug-In . SVG Version: 6.00 Build 0)  -->
<svg version="1.1" id="Layer_1" xmlns="http://www.w3.org/2000/svg" xmlns:xlink="http://www.w3.org/1999/xlink" x="0px" y="0px"
	 viewBox="0 0 485.9 432.9" style="enable-background:new 0 0 485.9 432.9;" xml:space="preserve">
<style type="text/css">
	.st0{fill:#FFFFFF;stroke:#FFFFFF;stroke-width:0.23;stroke-miterlimit:10;}
	.st1{enable-background:new    ;}
	.st2{fill:#BF6B4B;}
</style>
<path class="st0" d="M296.1,59.4H182.9c-54.9,0.1-99.3,44.5-99.4,99.4v26.9h18.4v-26.9c0-44.7,36.3-80.9,81-81h113.2
	c44.7,0,81,36.3,81,81v53.8c0,44.7-36.3,81-81,81h-56.6l-12.8-0.1c-47.6,0-91.5,7.2-95.5-28h-0.1c-0.1-3.3-0.1-6.6-0.1-10.1
	c0-19.8,5.9-40.6,16.6-60.1h82V269h21.2v-73.8h61.1V269h21.2V102.1h-21.2V174h-61.1v-71.9h-21.2c-26.4,5.9-51.6,22.2-73.8,46.6
	c-28.5,31.1-44.8,70-44.8,106.6c0,4.7,0.1,9.2,0.3,13.7h0.4c3.5,25,13.5,29.8,22.5,34.8c18.5,10.2,66.6,8.1,95.2,8.1h67
	c54.9-0.1,99.3-44.5,99.4-99.4v-53.8C395.5,103.9,351,59.4,296.1,59.4z M170,163.9c18-19.7,38.4-33.1,59.5-39v49h-68
	C164.2,170.5,167,167.2,170,163.9z"/>
<g>
	<g class="st1">
		<path class="st2" d="M87.6,354.9l5.6-27.5h13.2c2.7,0,4.8,0.7,6.2,2.2c1.4,1.5,2.2,3.3,2.2,5.6c0,0.7-0.1,1.5-0.2,2.4
			c-0.4,1.9-1.1,3.7-2,5.2s-2.2,2.7-3.7,3.5c-1.5,0.9-3.4,1.3-5.6,1.3H97l-1.5,7.4h-7.9V354.9z M98.2,341.4h4c1.4,0,2.4-0.4,3.1-1.1
			c0.6-0.7,1.1-1.6,1.3-2.8c0.1-0.3,0.1-0.6,0.1-0.8c0-0.3,0-0.5,0-0.7c0-0.8-0.2-1.4-0.6-1.8s-1.1-0.6-2.1-0.6h-4.2L98.2,341.4z"/>
		<path class="st2" d="M113.1,354.9l5.6-27.5h7.8l-2.1,10.3h9.2l2.1-10.3h7.8l-5.6,27.5h-7.8l2.1-10.3H123l-2.1,10.3H113.1z"/>
	</g>
	<g class="st1">
		<path class="st2" d="M156.3,355.3c-3.4,0-6.1-0.8-8.2-2.3c-2-1.6-3-4-3-7.4c0-1.3,0.2-2.7,0.5-4.4c0.7-3.4,1.8-6.2,3.2-8.3
			s3.2-3.6,5.5-4.6s4.9-1.4,7.9-1.4c3.5,0,6.3,0.8,8.2,2.4s2.9,4.1,2.9,7.4c0,1.3-0.2,2.8-0.5,4.5c-1,5-2.9,8.5-5.6,10.8
			C164.6,354.2,160.9,355.3,156.3,355.3z M157.7,348.5c2,0,3.6-0.6,4.7-1.7c1.1-1.2,2-3,2.5-5.5c0.1-0.7,0.2-1.3,0.3-1.9
			s0.1-1.1,0.1-1.6c0-1.4-0.4-2.4-1.1-3.1c-0.7-0.6-1.9-0.9-3.5-0.9c-2,0-3.5,0.6-4.7,1.7c-1.1,1.1-2,3-2.5,5.7
			c-0.1,0.7-0.2,1.3-0.3,1.9s-0.1,1.1-0.1,1.6c0,1.4,0.4,2.3,1.1,2.9C154.9,348.2,156.1,348.5,157.7,348.5z"/>
		<path class="st2" d="M178,354.9l4.4-21.5h-7.5l1.2-6h22.8l-1.2,6h-7.5l-4.4,21.5H178z"/>
	</g>
	<g class="st1">
		<path class="st2" d="M208.9,355.3c-3.4,0-6.1-0.8-8.2-2.3c-2-1.6-3-4-3-7.4c0-1.3,0.2-2.7,0.5-4.4c0.7-3.4,1.8-6.2,3.2-8.3
			s3.2-3.6,5.5-4.6s4.9-1.4,7.9-1.4c3.5,0,6.3,0.8,8.2,2.4s2.9,4.1,2.9,7.4c0,1.3-0.2,2.8-0.5,4.5c-1,5-2.9,8.5-5.6,10.8
			C217.2,354.2,213.6,355.3,208.9,355.3z M210.3,348.5c2,0,3.6-0.6,4.7-1.7c1.1-1.2,2-3,2.5-5.5c0.1-0.7,0.2-1.3,0.3-1.9
			s0.1-1.1,0.1-1.6c0-1.4-0.4-2.4-1.1-3.1c-0.7-0.6-1.9-0.9-3.5-0.9c-2,0-3.5,0.6-4.7,1.7c-1.1,1.1-2,3-2.5,5.7
			c-0.1,0.7-0.2,1.3-0.3,1.9s-0.1,1.1-0.1,1.6c0,1.4,0.4,2.3,1.1,2.9C207.6,348.2,208.7,348.5,210.3,348.5z"/>
		<path class="st2" d="M239.2,355.3c-2.4,0-4.6-0.4-6.4-1.2c-1.8-0.8-3.2-2-4.2-3.5c-1-1.6-1.5-3.5-1.5-5.7c0-1.1,0.1-2.3,0.4-3.5
			c1-4.6,2.9-8.2,5.8-10.7s7-3.8,12.3-3.8c1.7,0,3.1,0.1,4.4,0.3c1.3,0.2,2.5,0.5,3.6,0.9l-1.5,6.9c-1.1-0.5-2.3-0.8-3.5-1
			c-1.3-0.2-2.6-0.3-3.9-0.3c-2.4,0-4.4,0.6-6,1.8c-1.6,1.2-2.7,3.1-3.3,5.8c-0.2,1.1-0.4,2.1-0.4,2.9c0,1.5,0.4,2.5,1.3,3.2
			c0.8,0.7,2.3,1,4.2,1c0.7,0,1.4,0,2.1-0.1s1.3-0.2,1.9-0.4l0.8-4H240l1-5h11.8l-2.9,13.8c-1.2,0.7-2.6,1.2-4.5,1.8
			C243.8,355.1,241.7,355.3,239.2,355.3z"/>
	</g>
	<g class="st1">
		<path class="st2" d="M254.1,354.9l5.6-27.5h13.9c2.5,0,4.5,0.7,5.8,2s2,3.1,2,5.3c0,0.8-0.1,1.6-0.2,2.5c-0.4,1.9-1.2,3.5-2.4,4.9
			c-1.2,1.4-2.6,2.5-4.3,3.2c0.3,0.3,0.5,0.6,0.6,0.9c0.1,0.4,0.3,0.8,0.4,1.5l1.6,7.2H269l-1.5-6.6c-0.1-0.5-0.3-0.9-0.6-1.1
			c-0.3-0.2-0.7-0.3-1.3-0.3h-2.2l-1.6,8H254.1z M264.8,340.7h4.1c2.4,0,3.8-1.2,4.3-3.5c0.1-0.3,0.1-0.5,0.1-0.7s0-0.4,0-0.6
			c0-0.7-0.2-1.3-0.6-1.7c-0.4-0.4-1.1-0.6-2.1-0.6h-4.4L264.8,340.7z"/>
	</g>
	<g class="st1">
		<path class="st2" d="M278.5,354.9l15.9-27.5h8.2l4.6,27.5h-8.1l-1-5.9H290l-3.4,5.9H278.5z M292.3,343.3h6l-1.3-8.1L292.3,343.3z"
			/>
		<path class="st2" d="M310.2,354.9l5.6-27.5H329c2.7,0,4.8,0.7,6.2,2.2c1.4,1.5,2.2,3.3,2.2,5.6c0,0.7-0.1,1.5-0.2,2.4
			c-0.4,1.9-1.1,3.7-2,5.2c-1,1.5-2.2,2.7-3.7,3.5c-1.5,0.9-3.4,1.3-5.6,1.3h-6.3l-1.5,7.4h-7.9V354.9L310.2,354.9z M320.8,341.4h4
			c1.4,0,2.4-0.4,3.1-1.1s1.1-1.6,1.3-2.8c0.1-0.3,0.1-0.6,0.1-0.8c0-0.3,0-0.5,0-0.7c0-0.8-0.2-1.4-0.6-1.8s-1.1-0.6-2.1-0.6h-4.2
			L320.8,341.4z"/>
	</g>
	<g class="st1">
		<path class="st2" d="M338,354.9l5.6-27.5h7.8l-2.1,10.3h9.2l2.1-10.3h7.8l-5.6,27.5H355l2.1-10.3h-9.2l-2.1,10.3H338z"/>
	</g>
	<g class="st1">
		<path class="st2" d="M375.6,354.9l2.1-10.1l-6.1-17.4h7.9l3.3,10.4l7.5-10.4h8.4l-13.2,17.4l-2.1,10.1H375.6z"/>
	</g>
</g>
</svg>
