<?xml version="1.0" encoding="utf-8"?>
<!-- Generator: Adobe Illustrator 26.0.3, SVG Export Plug-In . SVG Version: 6.00 Build 0)  -->
<svg version="1.1" id="Layer_1" xmlns="http://www.w3.org/2000/svg" xmlns:xlink="http://www.w3.org/1999/xlink" x="0px" y="0px"
	 viewBox="0 0 48 48" style="enable-background:new 0 0 48 48;" xml:space="preserve">
<style type="text/css">
	.st0{fill:#FFFFFF;}
	.st1{fill:#F0F0F0;}
	.st2{fill:none;stroke:#000000;stroke-linecap:round;stroke-linejoin:round;stroke-miterlimit:10;}
	.st3{fill:#FFFFFF;stroke:#000000;stroke-linecap:round;stroke-linejoin:round;stroke-miterlimit:10;}
</style>
<g id="Icons">
	<g id="XMLID_1071_">
		<g id="XMLID_130_">
			<g id="XMLID_149_">
				<path id="XMLID_152_" class="st0" d="M47,17.1c0-7.6-6.1-13.7-13.7-13.7c-5.1,0-9.6,2.8-11.9,7c-1.6-1-3.6-1.6-5.7-1.6
					c-5.9,0-10.8,4.8-10.8,10.8C4.9,25.3,9.3,30,15,30.3c1.5,3.7,5.2,6.4,9.5,6.4c4.1,0,7.6-2.4,9.3-5.9C41.1,30.6,47,24.5,47,17.1z
					"/>
				<path id="XMLID_151_" class="st1" d="M34.1,26.6c-1.7,3.6-5.4,6.2-9.7,6.2c-4.5,0-8.3-2.8-9.9-6.7c-4.3-0.3-7.9-2.9-9.5-6.6v0.1
					C5,25.3,9.4,30,15.1,30.3c1.5,3.7,5.2,6.4,9.5,6.4c4.1,0,7.6-2.4,9.3-5.9c7.2-0.2,13-6,13.2-13.3C44.9,22.7,40,26.4,34.1,26.6z"
					/>
				<path id="XMLID_150_" class="st2" d="M47,17.1c0-7.6-6.1-13.7-13.7-13.7c-5.1,0-9.6,2.8-11.9,7c-1.6-1-3.6-1.6-5.7-1.6
					c-5.9,0-10.8,4.8-10.8,10.8C4.9,25.3,9.3,30,15,30.3c1.5,3.7,5.2,6.4,9.5,6.4c4.1,0,7.6-2.4,9.3-5.9C41.1,30.6,47,24.5,47,17.1z
					"/>
			</g>
			<circle id="XMLID_148_" class="st3" cx="3" cy="40.6" r="2"/>
			<g id="XMLID_131_">
				<circle id="XMLID_134_" class="st0" cx="11.3" cy="37.2" r="3.4"/>
				<path id="XMLID_133_" class="st1" d="M11.3,39.1c-1.4,0-2.6-0.6-3.4-1.6c0.2,1.7,1.6,3.1,3.4,3.1s3.2-1.4,3.4-3.1
					C13.9,38.5,12.7,39.1,11.3,39.1z"/>
				<circle id="XMLID_132_" class="st2" cx="11.3" cy="37.2" r="3.4"/>
			</g>
		</g>
	</g>
</g>
</svg>
