<?xml version="1.0" encoding="utf-8"?>
<!-- Generator: Adobe Illustrator 26.0.3, SVG Export Plug-In . SVG Version: 6.00 Build 0)  -->
<svg version="1.1" id="Layer_1" xmlns="http://www.w3.org/2000/svg" xmlns:xlink="http://www.w3.org/1999/xlink" x="0px" y="0px"
	 viewBox="0 0 229 166.6" style="enable-background:new 0 0 229 166.6;" xml:space="preserve">
<style type="text/css">
	.st0{fill:#89DC65;}
	.st1{fill:#3C751D;}
	.st2{fill:url(#top_left_wedge_00000080892831660206565120000012709971532551184032_);}
	.st3{fill:url(#top_right_wedge_00000174582948655496330020000003892188020427190945_);}
	.st4{fill:url(#mid_left_wedge_00000049189812296494905110000002999375699939100324_);}
	.st5{fill:url(#mid_right_wedge_00000136375355254111030900000000215387244549166519_);}
	.st6{fill:#FFFFFF;}
	.st7{fill:#9FC900;}
</style>
<g>
	<g id="Layer_2_00000115484294062945859660000013608695305794651830_">
		<g id="Logo_05_final_colour">
			<g id="Icon_05">
				<path id="lime_inner_rim" class="st0" d="M179.8,11.9c14.3-1.1,23.9-1.6,24.1-1.6h0.5l0.1,0.5c2.5,16.5-3.9,53.2-25.8,79.6
					c-15.3,18.4-35.6,28.5-58.6,29.2c-0.8,0-1.7,0-2.5,0c-27.5,0-57.1-12.8-74.3-32.5C29.8,71.7,24.3,52.9,27.6,32.8v-0.1L19.7,34
					c-2.6,18.4,2.8,35.9,15.7,50.7c19.1,22,54.4,36.5,85.9,35.7c24.2-0.7,44.7-11,60.9-30.4c22-26.4,29-62.4,27.1-80.1
					C205,10.1,194,10.7,179.8,11.9z"/>
				<path id="lime_outer_rim" class="st1" d="M213.4,7.2l-0.3-1.9l-1.9,0.1c-0.5,0-57.9,3-104.6,10.4S17.9,29.9,17.5,29.9l-1.6,0.3
					l-0.3,1.6C12.3,52.1,18,71.4,32.2,87.6c19.3,22.1,54.4,37.1,86.3,37.1c1,0,2,0,3,0c25.2-0.8,47.3-11.8,64.1-32
					C209.5,63.9,216.3,25.4,213.4,7.2z M182.2,89.9c-16.2,19.4-36.6,29.7-60.9,30.4c-31.4,1-66.7-13.7-85.9-35.7
					C22.5,69.9,17.2,52.4,19.7,34l7.8-1.2v-0.3l0.4-0.1c0.4-0.1,34.1-5.5,77.2-12.3c-0.2-0.4-0.4-1-0.4-1.5l-0.1-0.4l0.4-0.1
					c0,0,4.5-0.6,9.5-1.4c5-0.8,9.5-1.3,9.5-1.3h0.4l0.1,0.4c0.1,0.5,0.1,1.1,0.1,1.6c20.1-2.6,40.3-4.4,55.3-5.5
					c14.2-1.1,25.1-1.8,29.5-2C211.2,27.5,204.1,63.5,182.2,89.9z"/>
				
					<linearGradient id="top_left_wedge_00000072248348554905589490000010305951818558423178_" gradientUnits="userSpaceOnUse" x1="81.5024" y1="-276.8112" x2="63.1759" y2="-199.7117" gradientTransform="matrix(1 0 0 -1 0 -180)">
					<stop  offset="0" style="stop-color:#FFFFFF"/>
					<stop  offset="0" style="stop-color:#93D500"/>
					<stop  offset="0.22" style="stop-color:#94D503"/>
					<stop  offset="0.38" style="stop-color:#99D70D"/>
					<stop  offset="0.53" style="stop-color:#A0D91D"/>
					<stop  offset="0.66" style="stop-color:#AADD33"/>
					<stop  offset="0.79" style="stop-color:#B7E151"/>
					<stop  offset="0.91" style="stop-color:#C7E674"/>
					<stop  offset="0.99" style="stop-color:#D2EA8E"/>
				</linearGradient>
				<path id="top_left_wedge" style="fill:url(#top_left_wedge_00000072248348554905589490000010305951818558423178_);" d="
					M48.9,91.3l34.7-40.8c-5.2-0.8-8.7-5.5-7.9-10.7s5.5-8.7,10.7-7.9c3.5,0.5,6.5,3,7.6,6.4l13-15.4c-0.5-0.5-1-1.1-1.3-1.8
					C65,27.6,32.5,32.8,28.5,33.5c-3.1,19.5,2.4,37.8,15.6,53C45.7,88.2,47.2,89.7,48.9,91.3z"/>
				
					<linearGradient id="top_right_wedge_00000160888918551646577700000016217048862763956112_" gradientUnits="userSpaceOnUse" x1="204.6863" y1="-250.4342" x2="155.643" y2="-185.9885" gradientTransform="matrix(1 0 0 -1 0 -180)">
					<stop  offset="0" style="stop-color:#FFFFFF"/>
					<stop  offset="0" style="stop-color:#93D500"/>
					<stop  offset="0.13" style="stop-color:#96D606"/>
					<stop  offset="0.31" style="stop-color:#9DD817"/>
					<stop  offset="0.52" style="stop-color:#AADD33"/>
					<stop  offset="0.74" style="stop-color:#BBE25A"/>
					<stop  offset="0.97" style="stop-color:#D1EA8B"/>
					<stop  offset="0.99" style="stop-color:#D2EA8E"/>
				</linearGradient>
				<path id="top_right_wedge" style="fill:url(#top_right_wedge_00000160888918551646577700000016217048862763956112_);" d="
					M151.4,20.7c5.2,0,9.4,4.2,9.4,9.4c0,2.5-1,4.8-2.7,6.6l39.3,17.7c6-17,7.6-33.4,6.2-43c-4.8,0.3-42.4,2.4-79.1,7
					c-0.2,1-0.5,1.8-1.1,2.6l18.6,8.3C142.3,24.6,146.5,20.7,151.4,20.7z"/>
				
					<linearGradient id="mid_left_wedge_00000001637786218564592180000012559872592600383885_" gradientUnits="userSpaceOnUse" x1="86.6915" y1="-310.1382" x2="104.6141" y2="-183.2928" gradientTransform="matrix(1 0 0 -1 0 -180)">
					<stop  offset="0" style="stop-color:#FFFFFF"/>
					<stop  offset="0" style="stop-color:#93D500"/>
					<stop  offset="0.2" style="stop-color:#94D503"/>
					<stop  offset="0.36" style="stop-color:#99D70E"/>
					<stop  offset="0.51" style="stop-color:#A1DA1F"/>
					<stop  offset="0.66" style="stop-color:#ACDD37"/>
					<stop  offset="0.8" style="stop-color:#BAE257"/>
					<stop  offset="0.93" style="stop-color:#CAE77D"/>
					<stop  offset="0.99" style="stop-color:#D2EA8E"/>
				</linearGradient>
				<path id="mid_left_wedge" style="fill:url(#mid_left_wedge_00000001637786218564592180000012559872592600383885_);" d="
					M85.1,50.6L49.9,92.3c17.9,16.6,45.1,27,70.3,26.3c3.5-0.1,7-0.4,10.5-1l-6.8-42c-1.3,1.7-3,3-4.8,4
					c-14.8,9.5-20.6,9.4-26.2,7.9c-5.5-1.5-3.7-9.3-3.7-9.3c5.6,6.2,9.7,3.7,12.1,2.7c2.5-1,1.8-12.3,11.2-15c3.2-1,6.5-1.1,9.7-0.4
					l-6.3-39.3c-0.4,0.1-0.8,0.1-1.2,0.1c-2.5,0-4.9-1-6.8-2.5l-13.5,16c0.1,0.5,0.1,1,0.2,1.5C94.4,46.3,90.3,50.5,85.1,50.6z"/>
				
					<linearGradient id="mid_right_wedge_00000107558662968218942900000001367046066702432652_" gradientUnits="userSpaceOnUse" x1="177.5797" y1="-298.1692" x2="137.2473" y2="-201.0924" gradientTransform="matrix(1 0 0 -1 0 -180)">
					<stop  offset="0" style="stop-color:#FFFFFF"/>
					<stop  offset="0" style="stop-color:#93D500"/>
					<stop  offset="0.2" style="stop-color:#94D503"/>
					<stop  offset="0.36" style="stop-color:#99D70E"/>
					<stop  offset="0.51" style="stop-color:#A1DA1F"/>
					<stop  offset="0.66" style="stop-color:#ACDD37"/>
					<stop  offset="0.8" style="stop-color:#BAE257"/>
					<stop  offset="0.93" style="stop-color:#CAE77D"/>
					<stop  offset="0.99" style="stop-color:#D2EA8E"/>
				</linearGradient>
				<path id="mid_right_wedge" style="fill:url(#mid_right_wedge_00000107558662968218942900000001367046066702432652_);" d="
					M147.1,73.6c2.6,0.2,7.3,1.3,10.7-6.3c0,0,4.2,6.9-0.6,10c-4.8,3.1-10.3,5-27.3,0.5c-1.6-0.4-3.2-0.9-4.6-1.6l6.8,41.1
					c17.8-3.2,33.3-12.4,45.8-27.6c8.3-10.1,14.7-21.6,19-33.9l-39.8-18.1c-4.1,3.2-10,2.4-13.2-1.8c-1.1-1.5-1.8-3.2-1.9-5.1
					l-19.2-8.8c-1.4,1.9-3.5,3.3-5.9,4l6.4,38.9c2.6-1.3,5.5-2,8.5-2C141.5,62.3,144.4,73.4,147.1,73.6z"/>
				<path id="white_lines" class="st6" d="M43.4,87.2c17.2,19.6,46.7,32.5,74.3,32.5c0.9,0,1.7,0,2.5,0c23-0.7,43.2-10.7,58.6-29.2
					c22-26.5,28.5-63.2,25.8-79.6l-0.1-0.5H204c-0.3,0-9.8,0.5-24.1,1.6c-15,1.1-35.2,2.8-55.2,5.4c0-0.5,0-1.1-0.1-1.6l-0.1-0.4
					H124c-0.1,0-4.5,0.4-9.5,1.3s-9.4,1.4-9.4,1.4l-0.4,0.1l0.1,0.4c0.1,0.5,0.3,1.1,0.4,1.5c-43,6.8-76.8,12.3-77.2,12.3l-0.4,0.1
					v0.3v0.1C24.3,52.9,29.8,71.7,43.4,87.2z M28.5,33.5c4-0.6,36.4-5.9,77.1-12.3c0.4,0.6,0.8,1.2,1.3,1.8l-13,15.4
					c0.2,0.4,0.3,1,0.4,1.4l13.5-16c1.9,1.7,4.3,2.5,6.8,2.5c0.4,0,0.8,0,1.2-0.1l6.3,39.2h0.1c0.4-0.2,0.7-0.4,1-0.6l-6.4-38.8
					c2.4-0.6,4.4-2,5.9-4l19.2,8.8c0-0.2,0-0.4,0-0.6s0-0.4,0-0.7L123.4,21c0.5-0.8,0.9-1.7,1.1-2.6c36.7-4.7,74.4-6.8,79.1-7
					c1.4,9.7-0.3,26-6.2,43L158,36.7c-0.4,0.4-0.6,0.6-1,0.9l39.8,18.2c-4.3,12.3-10.8,23.8-19,34c-12.6,15.2-28,24.4-45.8,27.6
					l-6.8-41.1c-0.4-0.3-0.9-0.5-1.3-0.8l-0.1,0.1l6.8,42c-3.5,0.5-7,0.9-10.5,1c-25.1,0.7-52.2-9.7-70.3-26.3l35.2-41.7H85
					c-0.4,0-1-0.1-1.4-0.1L48.9,91.3c-1.7-1.6-3.2-3.2-4.7-4.8C30.9,71.2,25.5,52.9,28.5,33.5z"/>
				<path id="left_eye" d="M85,31.7c-5.2,0-9.4,4.2-9.5,9.4c0,4.7,3.4,8.7,8.1,9.4c0.4,0.1,0.9,0.1,1.4,0.1h0.1
					c5.2-0.1,9.3-4.3,9.3-9.4c0-0.5-0.1-1-0.2-1.5c-0.1-0.4-0.2-1-0.4-1.4C92.7,34.3,89.1,31.7,85,31.7z"/>
				<path id="right_eye" d="M151.4,39.6c2.1,0,4.1-0.7,5.7-1.9c0.4-0.3,0.7-0.5,1-0.9c3.7-3.7,3.6-9.7-0.1-13.3s-9.7-3.6-13.3,0.1
					c-1.6,1.6-2.5,3.7-2.7,6c0,0.3,0,0.4,0,0.7s0,0.4,0,0.6C142.3,35.7,146.4,39.6,151.4,39.6z"/>
				<path id="moustache" d="M112.5,65.8c-9.3,2.6-8.7,14.1-11.2,15c-2.5,1-6.5,3.5-12.1-2.7c0,0-1.8,7.8,3.7,9.3s11.3,1.6,26.2-7.9
					c1.8-1,3.5-2.3,4.8-4l0.1-0.1c0.4,0.3,0.9,0.5,1.3,0.8c1.5,0.7,3,1.2,4.6,1.6c17,4.5,22.5,2.5,27.3-0.5c4.8-3.1,0.6-10,0.6-10
					c-3.4,7.6-8,6.5-10.7,6.3s-5.5-11.2-15.2-10.8c-3,0.1-5.9,0.8-8.5,2.1c-0.4,0.2-0.7,0.4-1,0.6h-0.2
					C119,64.7,115.6,64.8,112.5,65.8z"/>
			</g>
			<g id="name">
				<path class="st7" d="M53.1,151.3l0.3-0.6c1.4-3.3,3-6.7,4.8-9.8c0.1-0.2,0.3-0.4,0.4-0.5c0.1-0.1,0.3-0.3,0.4-0.4
					c0.2-0.1,0.4-0.2,0.6-0.3c0.9-0.4,1.8-0.4,2.6-0.4c0.4,0,0.7,0,1.1,0.2c0.2,0.1,0.2,0.4,0.2,0.6c0,0.3,0,0.5,0,0.8
					c-0.1,1.7-0.1,2.9-0.1,3.6c0,1.8,0.1,3.4,0.4,5.2c0.2,1,0.4,1.8,0.7,2.7c0.3,0.7,0.5,1.3,1,1.9c0.3,0.4,0.5,0.8,0.9,1.1
					c0.3,0.4,0.4,0.5,0.4,0.7c0,0.3-0.3,0.7-0.8,1.2c-0.6,0.7-1.6,1.1-2.5,1.2c-1.2,0-2.4-0.6-3.2-1.5c-0.4-0.4-0.9-1.1-1.1-1.7
					c-0.4-0.7-0.5-1.5-0.6-2.2c-0.2-1.1-0.3-2.2-0.3-3.3c-0.1-1.5-0.1-2.3-0.1-2.5H58l-1.5,2.9c-0.4,0.8-0.7,1.4-1,1.9
					c-0.3,0.5-0.5,1.1-0.9,1.8c-0.6,1.4-1.3,2.7-2.1,4l-0.1,0.1c0,0.1-0.1,0.1-0.2,0.2c-0.2,0.2-0.4,0.3-0.5,0.4
					c-0.2,0.1-0.4,0.1-0.5,0.1c-0.5-0.1-1-0.4-1.3-0.7c-0.5-0.5-1-1.2-1.2-1.9c-0.4-0.8-0.6-1.7-0.9-2.5c-0.3-1.1-0.4-2-0.6-3.1
					c-0.2-1.2-0.4-2.6-0.4-4.3h-0.1l-0.6,1.4c-0.2,0.4-0.4,0.8-0.7,1.4l-0.5,1.1c-0.4,0.9-0.8,1.8-1.2,2.6c-0.4,0.9-0.8,1.6-1.1,2
					c-0.3,0.4-0.5,1-0.9,1.4c-0.3,0.4-0.4,0.6-0.7,0.9c-0.5,0.5-1.1,1-1.8,1.2c-0.6,0.3-1.2,0.4-1.9,0.4c-0.2,0-0.4-0.1-0.6-0.2
					c-0.2-0.1-0.3-0.3-0.3-0.4c0.1-0.3,0.2-0.4,0.4-0.6c0.2-0.2,0.4-0.6,0.9-1.3l0.8-1.2c0.5-0.8,1.3-2.1,2.3-4l0.7-1.2
					c1.6-3.1,2.6-5.1,3.2-6.2c0.4-0.6,0.7-1.2,0.9-1.9c-0.1-0.3-0.2-0.5-0.4-0.7c-0.2-0.2-0.4-0.4-0.4-0.4s0.3-0.4,0.8-0.6
					c0.5-0.2,1.1-0.3,1.8-0.3c1-0.1,2,0.3,2.8,0.9c0.4,0.6,0.8,1.3,1,2.1c0.4,1.5,0.7,3.1,0.9,4.6c0,0.1,0,0.2,0.1,0.3s0,0.1,0,0.2
					s0,0.1,0,0.2c0.1,0.2,0.1,0.4,0.1,0.5c0.2,1.2,0.4,2,0.4,2.4C52.8,150.7,52.9,151,53.1,151.3z"/>
				<path class="st7" d="M72.8,154.7c0.1,0.5,0.5,1,1.1,0.9l0,0c1.1-0.2,2-0.5,2.7-1.2c0.4-0.4,0.9-0.6,1.3-0.7
					c0.3,0,0.5,0.1,0.8,0.3s0.4,0.4,0.4,0.4c-0.1,0.3-0.2,0.5-0.4,0.7c-0.5,0.5-1.1,1.1-1.8,1.5c-0.6,0.4-1.2,0.9-1.8,1.2
					c-0.6,0.4-1.2,0.5-1.8,0.8c-0.5,0.2-1.1,0.3-1.6,0.3c-1.1,0.1-2-0.4-2.8-1c-0.7-0.7-1.1-1.7-1.1-2.7c0-1,0.2-2,0.5-2.9
					c0.4-1.1,0.9-2.1,1.5-3.1c0.7-1.1,1.7-2,2.7-2.8c1.1-0.8,2.5-1.3,3.9-1.3c0.8,0,1.6,0.3,2.1,0.9c0.5,0.6,0.8,1.5,0.8,2.3
					c0,0.9-0.3,1.7-0.6,2.4c-0.4,0.9-1.1,1.7-1.8,2.4c-0.5,0.5-1.2,1.1-1.8,1.5c-0.5,0.4-1.1,0.5-1.6,0.5
					C73.2,154.9,73,154.8,72.8,154.7z M72.8,154.3c0.4-0.3,0.7-0.5,1-0.9c0.5-0.6,0.9-1.3,1.1-2.1c0.3-0.5,0.4-1.1,0.5-1.8
					c0.1-0.6,0.2-1.2,0.2-1.8c0-0.5-0.1-0.8-0.4-0.8c-0.3,0-0.8,0.7-1.4,2c-0.4,0.8-0.6,1.6-0.9,2.4c-0.2,0.7-0.4,1.4-0.4,2.1
					C72.7,153.8,72.7,154,72.8,154.3L72.8,154.3z"/>
				<path class="st7" d="M86.7,155.7l-0.2,0.2l-0.2,0.2l-0.3,0.3c-0.8,0.7-1.6,1.4-2.5,2c-0.4,0.4-1,0.5-1.5,0.5
					c-0.5,0-1.1-0.2-1.4-0.5c-0.4-0.4-0.5-0.8-0.5-1.3c0-0.6,0.3-1.2,0.7-1.6c0.2-0.1,0.4-0.4,1.1-0.9c0.9-0.7,1.5-1.1,1.8-1.5
					c0.3-0.4,0.7-0.7,1.1-1.1c-0.4-0.9-0.8-1.6-1.1-2.3l-0.7-1.1c-0.3-0.4-0.5-0.8-0.9-1.1c-0.3-0.3-0.5-0.5-0.9-0.8
					c-0.4-0.2-0.5-0.4-0.5-0.6c0-0.2,0.2-0.4,0.5-0.4c0.4-0.2,0.9-0.2,1.4-0.2c1.1,0,2.3,0.4,3.2,1l0.6,0.4c0.2,0.2,0.4,0.4,0.7,0.6
					l0.8,0.8c0.6-0.9,1.4-1.7,2.3-2.3c0.5-0.4,1.2-0.7,1.9-0.8c0.4,0,0.8,0.1,1.1,0.2c0.4,0.2,0.5,0.3,0.5,0.4
					c0,0.4-0.2,0.9-0.4,1.2c-0.4,0.7-1,1.4-1.6,2c-0.6,0.7-0.9,1.1-1.1,1.2c-0.2,0.1-0.4,0.5-0.7,1l3.3,5.4c0.2,0.3,0.3,0.5,0.3,0.8
					c0,0.4-0.3,0.8-0.9,1.1c-0.6,0.4-1.3,0.5-2,0.5c-1.1,0.1-2.3-0.4-3-1.4C87.4,157.1,87,156.4,86.7,155.7z"/>
				<path class="st7" d="M96.8,158.8c-0.4,0-0.9-0.3-1.1-0.6c-0.4-0.4-0.6-0.8-0.7-1.2c-0.2-0.5-0.3-1.1-0.2-1.7
					c0-1.8,0.4-3.6,0.9-5.3c0.4-1.5,1.1-3,1.9-4.3c0.3-0.4,0.8-0.6,1.2-0.5c0.5,0,1.1,0.3,1.3,0.8c0.4,0.6,0.5,1.3,0.5,1.9
					c0,1.4-0.2,2.8-0.5,4.2c-0.4,1.7-0.9,3.4-1.5,5c-0.2,0.5-0.4,1.1-0.9,1.4C97.5,158.8,97.3,158.8,96.8,158.8L96.8,158.8z
					 M98.6,144.6c-0.9,0-1.3-0.5-1.3-1.6c0-0.6,0.2-1.2,0.4-1.8c0.2-0.5,0.5-1.1,0.9-1.5c0.2-0.2,0.4-0.3,0.5-0.4s0.4-0.1,0.7-0.1
					c0.4,0,0.8,0.1,1.1,0.4c0.3,0.4,0.4,0.7,0.4,1.1c0,0.6-0.1,1.3-0.4,1.9c-0.2,0.5-0.5,1.1-1,1.5C99.5,144.4,99,144.5,98.6,144.6
					L98.6,144.6z"/>
				<path class="st7" d="M103.7,154.3c-0.4,0-0.9-0.2-1.2-0.4c-0.4-0.3-0.4-0.7-0.4-1.1s0.1-0.7,0.3-1.1c0.1-0.4,0.3-0.6,0.5-0.9
					c0.4-0.4,1.3-0.6,2.7-0.6c0.7,0,1.4,0.1,2.1,0.3c0.4,0.1,0.6,0.4,0.6,0.9c0,0.4-0.1,1-0.4,1.3c-0.4,0.4-0.8,0.7-1.3,0.9
					C105.6,153.9,104.7,154.2,103.7,154.3z"/>
				<path class="st7" d="M117,145.1c0.6,0,1.2,0.2,1.8,0.6c0.4,0.4,0.7,1,0.6,1.6c0,0.6-0.2,1.2-0.5,1.8c-0.3,0.5-0.7,1.1-1.2,1.4
					c-0.4,0.4-1,0.5-1.5,0.5c-0.3,0-0.4-0.1-0.4-0.4c0-0.2,0.1-0.4,0.2-0.5c0.4-0.6,0.5-1.4,0.5-2.1c0-0.4-0.1-0.6-0.2-0.6
					c-0.1,0-0.4,0.2-0.5,0.5c-0.3,0.4-0.4,0.8-0.6,1.2c-0.3,0.8-0.5,1.5-0.7,2.3c-0.2,0.7-0.3,1.4-0.3,2.1c0,0.5,0.1,1.1,0.3,1.5
					c0.2,0.4,0.4,0.5,0.8,0.5c0.4-0.1,0.9-0.3,1.3-0.5c0.5-0.4,1.1-0.8,1.5-1.2c0.2-0.3,0.4-0.4,0.5-0.4s0.4,0.1,0.4,0.4
					c0,1.2-0.5,2.4-1.4,3.2c-0.6,0.6-1.3,1.1-2.1,1.5c-0.7,0.4-1.4,0.5-2.2,0.5c-1.1,0-2-0.4-2.8-1.1c-0.8-0.7-1.2-1.7-1.1-2.7
					c0-1.1,0.3-2.3,0.7-3.4c0.5-1.2,1.1-2.4,1.9-3.4c0.8-1.1,1.8-1.9,2.8-2.7C115.5,145.3,116.2,145.1,117,145.1L117,145.1z"/>
				<path class="st7" d="M129.9,144.4c1.4,0,2.1,0.2,2.1,0.5s-0.4,0.6-1,0.6c-0.8,0-1.5,0.3-2.1,0.6c-0.7,0.4-1.3,1-1.8,1.6
					c-0.5,0.7-1,1.4-1.2,2.3c-0.3,0.9-0.4,1.8-0.4,2.6s0.2,1.8,0.7,2.5c0.4,0.6,1.1,1,1.8,1c0.8,0,1.5-0.4,1.8-1.1
					c0.5-0.8,0.8-1.7,0.8-2.5c0-0.8-0.2-1.6-0.5-2.3c-0.4-0.7-0.9-1.3-1.5-1.8c-0.3-0.2-0.4-0.4-0.4-0.4c0-0.1,0.2-0.4,0.6-0.6
					s1-0.5,1.5-0.7c0.4-0.2,0.9-0.3,1.4-0.3c0.4,0,0.9,0.1,1.2,0.4c0.4,0.3,0.8,0.5,1.1,1c0.3,0.4,0.5,0.9,0.7,1.4
					c0.2,0.5,0.3,1.1,0.3,1.7c0,1.1-0.2,2-0.5,3c-0.4,0.9-0.8,1.7-1.5,2.4c-0.8,0.8-1.8,1.4-2.9,1.8c-1,0.4-2.1,0.7-3.2,0.7
					c-1,0-2-0.2-2.9-0.5c-0.9-0.3-1.7-0.7-2.3-1.3c-0.8-0.9-1.2-2-1.1-3.2c0-1.1,0.3-2.3,0.8-3.3c0.5-1.1,1.3-2.1,2.2-3
					s1.9-1.6,3.1-2.1C127.7,144.7,128.8,144.4,129.9,144.4z"/>
				<path class="st7" d="M145.7,144.4c1.4,0,2.1,0.2,2.1,0.5s-0.4,0.6-1,0.6c-0.8,0-1.5,0.3-2.1,0.6c-0.7,0.4-1.3,1-1.8,1.6
					c-0.5,0.7-1,1.5-1.2,2.3c-0.3,0.9-0.4,1.8-0.4,2.6c-0.1,0.9,0.2,1.8,0.7,2.5c0.4,0.6,1.1,1,1.8,1c0.8,0,1.5-0.4,1.8-1.1
					c0.5-0.8,0.8-1.7,0.8-2.5c0-0.8-0.2-1.6-0.5-2.3c-0.4-0.7-0.9-1.3-1.5-1.8c-0.3-0.2-0.4-0.4-0.4-0.4c0-0.1,0.2-0.4,0.6-0.6
					c0.4-0.3,1-0.5,1.5-0.7c0.4-0.2,0.9-0.3,1.4-0.3c0.4,0,0.9,0.1,1.2,0.4c0.4,0.3,0.7,0.5,1,1c0.3,0.4,0.5,0.9,0.7,1.4
					c0.2,0.5,0.3,1.1,0.3,1.7c0,1.1-0.2,2-0.5,3c-0.4,0.9-0.8,1.7-1.5,2.4c-0.9,0.8-1.8,1.4-2.9,1.8c-1,0.4-2.1,0.7-3.2,0.7
					c-1,0-2-0.2-2.9-0.5c-0.9-0.3-1.7-0.7-2.3-1.3c-0.8-0.9-1.2-2-1.1-3.2c0-1.1,0.3-2.3,0.8-3.3c0.5-1.1,1.3-2.1,2.2-3
					c0.9-0.9,1.9-1.6,3.1-2.1C143.3,144.7,144.5,144.4,145.7,144.4z"/>
				<path class="st7" d="M165.4,161.2c-1.3,1.7-2.3,2.5-3,2.5c-0.6,0-1.1-0.3-1.6-0.6c-0.6-0.4-1.1-1-1.6-1.6
					c-0.4-0.7-0.9-1.4-1.1-2.2c-0.3-0.7-0.4-1.5-0.4-2.2c0-0.3,0-0.5,0.2-0.8c0.1-0.1,0.3-0.2,0.4-0.3c1.6-1,2.4-1.9,2.4-2.8
					c0-0.4-0.2-0.7-0.6-0.7c-0.4,0-1,0.4-1.7,1.2c-0.7,1-1.4,1.9-1.8,3.1c-0.2,0.5-0.5,1.1-0.9,1.5c-0.3,0.2-0.6,0.3-1,0.3
					c-0.4,0-1-0.2-1.3-0.4c-0.4-0.3-0.7-0.7-0.9-1.2c-0.2-0.5-0.4-1.1-0.4-1.8c0-1.1,0.2-2.3,0.4-3.3c0.3-1.2,0.6-2.5,1.1-3.6
					c0.4-1.2,1.1-2.5,1.7-3.6c0.6-1.1,1.2-2.1,2-3.1c1.4-1.8,2.7-2.5,4-2.5c0.6,0,1.2,0.2,1.8,0.4c0.5,0.3,0.9,0.7,1.1,1.2
					c0.3,0.6,0.4,1.2,0.4,1.8c0,0.9-0.3,1.8-0.6,2.6c-0.4,0.8-1,1.6-1.7,2.1c-0.6,0.5-1.3,0.9-2.1,0.9c-0.4,0-0.5-0.1-0.5-0.4
					c0.1-0.3,0.2-0.4,0.3-0.7c0.9-1.8,1.3-3.7,1.2-5.6c0-0.5-0.1-0.8-0.2-0.8c-0.1,0-0.3,0.1-0.4,0.4c-0.3,0.4-0.4,0.6-0.5,1
					c-1.1,2.5-1.8,5.3-2.3,8.1c0,0.2-0.1,0.4-0.1,0.6s-0.1,0.5-0.1,0.9l0.1,0.1c0.3-0.4,0.6-0.9,1-1.2c0.3-0.4,0.6-0.6,1-0.9
					c1-0.9,2.3-1.4,3.6-1.5c0.5,0,1.1,0.2,1.4,0.5c0.4,0.4,0.5,0.8,0.5,1.2c0,1.4-0.4,2.7-1.2,4c-0.3,0.4-0.5,0.8-0.8,1.1
					c-0.3,0.4-0.7,0.9-1.3,1.5c0.4,0.6,0.8,1.2,1.1,1.8c0.4,0.5,1,1.1,1.5,1.5C164.7,160.3,165.2,160.8,165.4,161.2z"/>
				<path class="st7" d="M168.5,158.8c-0.4,0-0.9-0.3-1.1-0.6c-0.4-0.4-0.6-0.8-0.7-1.2c-0.2-0.5-0.3-1.1-0.2-1.7
					c0-1.8,0.4-3.6,0.9-5.3c0.4-1.5,1.1-3,1.9-4.3c0.3-0.4,0.8-0.6,1.2-0.5c0.5,0,1.1,0.3,1.3,0.8c0.4,0.6,0.5,1.3,0.5,1.9
					c0,1.4-0.2,2.8-0.5,4.2c-0.4,1.7-0.9,3.4-1.5,5c-0.2,0.5-0.4,1.1-0.9,1.4C169.2,158.8,168.8,158.8,168.5,158.8L168.5,158.8z
					 M170.3,144.6c-0.9,0-1.3-0.5-1.3-1.6c0-0.6,0.2-1.2,0.4-1.8c0.2-0.5,0.5-1.1,0.9-1.5c0.2-0.2,0.4-0.3,0.5-0.4
					c0.2-0.1,0.4-0.1,0.7-0.1c0.4,0,0.8,0.1,1.1,0.4c0.3,0.4,0.4,0.7,0.4,1.1c0,0.6-0.1,1.3-0.4,1.9c-0.2,0.5-0.5,1.1-1,1.5
					C171.1,144.4,170.7,144.6,170.3,144.6L170.3,144.6z"/>
				<path class="st7" d="M179.8,151.2l0.9-1c0.9-1,1.6-1.7,2-2.1c0.4-0.4,0.9-0.7,1.4-1.1c0.4-0.2,0.8-0.3,1.2-0.4
					c0.5-0.1,1.1,0.2,1.4,0.5c0.4,0.5,0.4,1.2,0.4,1.8c0,0.5-0.1,1.1-0.1,1.7c-0.1,0.9-0.2,1.8-0.2,2.7c0,0.8,0,1.6,0.2,2.3
					c0.1,0.4,0.2,0.7,0.3,1.1c0.1,0.3,0.1,0.4,0.2,0.7c0,0.2-0.1,0.3-0.2,0.4c-0.4,0.3-0.7,0.5-1.1,0.7c-0.4,0.2-0.8,0.3-1.2,0.3
					c-0.5,0-1.1-0.2-1.5-0.5c-0.4-0.4-0.8-1-1.1-1.5c-0.3-0.7-0.4-1.5-0.4-2.2c0-0.6,0.1-1.3,0.2-1.9l-0.1-0.1
					c-0.4,0.4-0.7,0.8-1,1.1s-0.5,0.5-0.7,0.8c-1.1,1.2-1.9,2.3-2.7,3.2c-0.3,0.4-0.5,0.7-0.8,1c-0.4,0.4-0.7,0.5-1.2,0.5
					c-0.5,0-1.1-0.3-1.5-0.7c-0.4-0.5-0.6-1.1-0.5-1.8c0-0.5,0.1-1.1,0.2-1.7c0.1-0.6,0.3-1.3,0.4-2.1c0.2-0.8,0.4-1.5,0.6-2.3
					c0.3-0.8,0.5-1.5,0.8-2.2c0.4-1,0.9-1.9,1.6-2.7c0.4-0.4,1-0.6,1.6-0.6c1,0,1.5,0.6,1.5,1.9
					C180.3,148.5,180.1,149.9,179.8,151.2L179.8,151.2z"/>
			</g>
		</g>
	</g>
</g>
</svg>
