<?xml version="1.0" encoding="utf-8"?>
<!-- Generator: Adobe Illustrator 26.0.3, SVG Export Plug-In . SVG Version: 6.00 Build 0)  -->
<svg version="1.1" id="Layer_1" xmlns="http://www.w3.org/2000/svg" xmlns:xlink="http://www.w3.org/1999/xlink" x="0px" y="0px"
	 viewBox="0 0 258 157.7" style="enable-background:new 0 0 258 157.7;" xml:space="preserve">
<style type="text/css">
	.st0{clip-path:url(#SVGID_00000165206226463090928480000000655822170506515330_);fill:none;stroke:#99BFE5;stroke-width:1.7943;}
	.st1{clip-path:url(#SVGID_00000165206226463090928480000000655822170506515330_);fill:#DBE797;}
	.st2{clip-path:url(#SVGID_00000165206226463090928480000000655822170506515330_);fill:#99BFE5;}
</style>
<g>
	<defs>
		<rect id="SVGID_1_" x="6.7" y="32.4" width="244.5" height="92.9"/>
	</defs>
	<clipPath id="SVGID_00000147214734666388812480000000876235946637465729_">
		<use xlink:href="#SVGID_1_"  style="overflow:visible;"/>
	</clipPath>
	
		<path style="clip-path:url(#SVGID_00000147214734666388812480000000876235946637465729_);fill:none;stroke:#99BFE5;stroke-width:1.7943;" d="
		M42,48.5c-10,0-18.2,8.1-18.2,18.2V91c0,10,8.1,18.2,18.2,18.2h3.7c10,0,18.2-8.1,18.2-18.2V66.7c0-10-8.1-18.2-18.2-18.2H42z"/>
	<path style="clip-path:url(#SVGID_00000147214734666388812480000000876235946637465729_);fill:#DBE797;" d="M236.2,102.3h0.6
		c5.4,0,8.6,1.4,8.6,4.6v0.6c0,3.1-3.2,4.7-8.6,4.7h-0.6c-5.4,0-8.6-1.6-8.6-4.7v-0.6C227.6,103.7,230.8,102.3,236.2,102.3
		 M235.8,76.6h0.6c3.5,0,5.8,2.3,5.8,5.8V83c0,3.5-2.3,5.9-5.8,5.9h-0.6c-3.5,0-5.8-2.4-5.8-5.9v-0.6
		C230,78.9,232.3,76.6,235.8,76.6 M235.9,72.2c-6.6,0-11.1,4.3-11.1,10.1V83c0,3.1,1.3,5.7,3.3,7.6v0.8c-1.9,0.8-3,2.3-3,4.1
		c0,1.7,0.8,3.2,3,4.2v1.2c-3,1.2-5.7,3.2-5.7,7.2v0.5c0,4.7,5.1,8.1,13.8,8.1h0.6c8.6,0,13.8-3.4,13.8-9.1v-0.6c0-6.3-5.2-9-13.8-9
		h-0.6c-5.6,0-5.8-2.1-5.8-3.1c0-1,0.5-1.7,1-2.2c1.5,0.5,2.9,0.7,4.4,0.7h0.5c6.6,0,11-4.3,11-10.3v-0.6c0-2.2-0.6-4.1-1.7-5.8h5.5
		v-3.8h-10.8c-1.2-0.4-2.6-0.6-4-0.6H235.9z M192.8,72.8V102h5.2V84.8c0-5.4,2.7-7.9,6.9-7.9h0.6c4.3,0,6.9,2.5,6.9,7.9V102h5.2
		V83.9c0-7.9-4.4-11.7-10-11.7h-0.6c-3.4,0-6.2,1.4-8,4h-1.2v-3.4H192.8z M183.1,60.8c-1.7,0-2.9,1.3-2.9,2.9c0,1.8,1.2,3,2.9,3h0.3
		c1.6,0,2.9-1.2,2.9-3c0-1.6-1.3-2.9-2.9-2.9H183.1z M180.6,102h5.2V72.8h-5.2V102z M151.6,58.8V102h5.2V89.4h1.7l11,12.6h6.7
		l-12.8-14.7v-1.5l12.1-12.9h-5.7l-11.3,12.1h-1.7V58.8H151.6z M131.5,76.6h0.6c5.1,0,7.9,3.2,7.9,9v3.5c0,5.8-2.8,9-7.9,9h-0.6
		c-5.1,0-7.9-3.2-7.9-9v-3.5C123.6,79.8,126.5,76.6,131.5,76.6 M131.5,72.2c-7.6,0-13.1,4.4-13.1,13.4v3.5c0,9,5.5,13.4,13.1,13.4
		h0.6c7.6,0,13.1-4.4,13.1-13.4v-3.5c0-9-5.5-13.4-13.1-13.4H131.5z M98.9,76.6h0.6c5.1,0,7.9,3.2,7.9,9v3.5c0,5.8-2.8,9-7.9,9h-0.6
		c-5.1,0-7.9-3.2-7.9-9v-3.5C91,79.8,93.9,76.6,98.9,76.6 M98.9,72.2c-7.6,0-13.1,4.4-13.1,13.4v3.5c0,9,5.5,13.4,13.1,13.4h0.6
		c7.6,0,13.1-4.4,13.1-13.4v-3.5c0-9-5.5-13.4-13.1-13.4H98.9z"/>
	<path style="clip-path:url(#SVGID_00000147214734666388812480000000876235946637465729_);fill:#99BFE5;" d="M51,77.1l3.6,9.5
		l-1.4,3.8h1.5l5-13.3h-1.5l-2.5,6.6h-0.5l-2.5-6.6H51z M42.1,77.1v9h1.6v-5.3c0-1.7,0.8-2.4,2.1-2.4h0.2c1.3,0,2.1,0.8,2.1,2.4V86
		h1.6v-5.6c0-2.4-1.4-3.6-3.1-3.6h-0.2c-1,0-1.9,0.4-2.5,1.2h-0.4v-1.1H42.1z M39.1,73.4c-0.5,0-0.9,0.4-0.9,0.9
		c0,0.6,0.4,0.9,0.9,0.9h0.1c0.5,0,0.9-0.4,0.9-0.9C40.1,73.8,39.7,73.4,39.1,73.4L39.1,73.4z M38.4,86H40v-9h-1.6V86z M27,74v1.4
		h4.1V86h1.7V75.5h4.1V74H27z"/>
	<path style="clip-path:url(#SVGID_00000147214734666388812480000000876235946637465729_);fill:#DBE797;" d="M42.5,32.4
		c-20.9,0-35.8,11.7-35.8,35.9v21c0,24.9,14.9,35.9,35.8,35.9h2.7c20.9,0,35.8-10.8,35.8-35.1H68.2c0,17.2-9.6,24.2-23,24.2h-2.7
		c-13.5,0-23-7.3-23-25v-21c0-17.2,9.6-25,23-25h2.7c13.5,0,22.6,7.5,22.6,24.2h12.8c0-23.7-14.5-35.1-35.4-35.1H42.5z"/>
</g>
</svg>
